<svg width="11" height="9" viewBox="0 0 11 9" fill="none" xmlns="http://www.w3.org/2000/svg">
<path d="M0.456 1.32V0.323999H2.712V9H1.608V1.32H0.456ZM4.58775 4.572C4.58775 3.196 4.81175 2.124 5.25975 1.356C5.70775 0.58 6.49175 0.192 7.61175 0.192C8.72375 0.192 9.50375 0.58 9.95175 1.356C10.3997 2.124 10.6237 3.196 10.6237 4.572C10.6237 5.972 10.3997 7.06 9.95175 7.836C9.50375 8.612 8.72375 9 7.61175 9C6.49175 9 5.70775 8.612 5.25975 7.836C4.81175 7.06 4.58775 5.972 4.58775 4.572ZM9.54375 4.572C9.54375 3.876 9.49575 3.288 9.39975 2.808C9.31175 2.32 9.12375 1.928 8.83575 1.632C8.55575 1.336 8.14775 1.188 7.61175 1.188C7.06775 1.188 6.65175 1.336 6.36375 1.632C6.08375 1.928 5.89575 2.32 5.79975 2.808C5.71175 3.288 5.66775 3.876 5.66775 4.572C5.66775 5.292 5.71175 5.896 5.79975 6.384C5.89575 6.872 6.08375 7.264 6.36375 7.56C6.65175 7.856 7.06775 8.004 7.61175 8.004C8.14775 8.004 8.55575 7.856 8.83575 7.56C9.12375 7.264 9.31175 6.872 9.39975 6.384C9.49575 5.896 9.54375 5.292 9.54375 4.572Z" fill="white"/>
</svg>
